<svg xmlns="http://www.w3.org/2000/svg" width="1026" height="7661" viewBox="0 0 1026 7661">
  <g fill="none" fill-rule="evenodd" stroke="#FFF" stroke-width="2.6" opacity=".05" transform="rotate(90 511 513)">
    <path d="M711.996047-6.25277607e-13L834.321648-6.25277607e-13C840.06541-6.24556363e-13 844.721648 4.65623886 844.721648 10.4000006 844.721648 10.4915702 844.720439 10.5831359 844.718021 10.6746737L819.267549 973.974727C819.118676 979.609534 814.50795 984.100054 808.871176 984.100054L673.820354 984.100054C668.076592 984.100054 663.420353 979.443815 663.420353 973.700054 663.420353 973.562737 663.423073 973.425433 663.428511 973.288224L701.604204 9.98817061C701.825307 4.40900807 706.412505-6.24251927e-13 711.996047-6.25277607e-13zM452.678423-6.25277607e-13L561.736501-6.25277607e-13C567.426687-6.17991434e-13 572.060433 4.57293859 572.135594 10.2626281L584.860825 973.562681C584.936694 979.305942 580.342365 984.023278 574.599104 984.099147 574.553316 984.099752 574.507524 984.100054 574.461732 984.100054L478.128885 984.100054C472.492111 984.100054 467.881384 979.609534 467.732512 973.974727L442.28205 10.6746735C442.130352 4.93291542 446.661992.155325504 452.40375.00362780776 452.495288.00120937472 452.586853-6.2348443e-13 452.678423-6.25277607e-13zM244.400013 0L340.179695 0C345.923457 9.1478585e-15 350.579696 4.65623886 350.579696 10.4000006 350.579696 10.5373176 350.576976 10.6746212 350.571539 10.8118305L312.395845 974.111884C312.174742 979.691046 307.587544 984.100054 302.004002 984.100054L244.400013 984.100054C238.656252 984.100054 234.000013 979.443815 234.000013 973.700054L234.000013 10.4000006C234.000013 4.65623886 238.656252-7.2124493e-16 244.400013 0z"/>
    <rect width="117" height="984.1" rx="10.4"/>
    <path d="M933.538343-6.25277607e-13L1068.32165-6.25277607e-13C1074.06541-6.26332719e-13 1078.72165 4.65623886 1078.72165 10.4000006 1078.72165 10.4915702 1078.72044 10.5831359 1078.71803 10.6746735L1053.26756 973.974727C1053.11869 979.609534 1048.50796 984.100054 1042.87119 984.100054L946.263574 984.100054C940.573388 984.100054 935.939642 979.527116 935.864481 973.837426L923.13925 10.537373C923.063381 4.79411238 927.65771.0767760042 933.400971.000907307968 933.446759.000302442585 933.492551-6.50138191e-13 933.538343-6.25277607e-13zM1154.82038-5.96855898e-13L1315.17976-5.96855898e-13C1320.92352-5.96134653e-13 1325.57976 4.65623886 1325.57976 10.4000006 1325.57976 10.5373177 1325.57704 10.6746213 1325.5716 10.8118306L1287.3959 974.111884C1287.17479 979.691046 1282.58759 984.100054 1277.00405 984.100054L1192.99607 984.100054C1187.41253 984.100054 1182.82533 979.691046 1182.60423 974.111884L1144.42854 10.8118305C1144.20109 5.07257394 1148.66929.235604642 1154.40855.0081572332 1154.54576.00271961102 1154.68306-5.95054316e-13 1154.82038-5.96855898e-13zM2051.82032-4.26325641e-13L2212.17969-4.26325641e-13C2217.92345-4.25604397e-13 2222.57969 4.65623886 2222.57969 10.4000006 2222.57969 10.5373177 2222.57697 10.6746213 2222.57154 10.8118306L2184.39583 974.111884C2184.17473 979.691046 2179.58753 984.100054 2174.00399 984.100054L2089.99601 984.100054C2084.41247 984.100054 2079.82527 979.691046 2079.60417 974.111884L2041.42847 10.8118305C2041.20103 5.07257394 2045.66923.235604642 2051.40849.0081572332 2051.5457.00271961102 2051.683-4.2452406e-13 2051.82032-4.26325641e-13zM3390.82023 37.8999459L3551.1796 37.8999459C3556.92337 37.8999459 3561.57961 42.5561847 3561.57961 48.2999464 3561.57961 48.4372635 3561.57689 48.5745671 3561.57145 48.7117765L3523.39574 1012.01183C3523.17464 1017.59099 3518.58744 1022 3513.0039 1022L3428.99592 1022C3423.41238 1022 3418.82518 1017.59099 3418.60408 1012.01183L3380.42839 48.7117764C3380.20094 42.9725198 3384.66914 38.1355505 3390.4084 37.9081031 3390.54561 37.9026655 3390.68291 37.8999459 3390.82023 37.8999459zM4261.82023 37.8999459L4422.1796 37.8999459C4427.92337 37.8999459 4432.57961 42.5561847 4432.57961 48.2999464 4432.57961 48.4372635 4432.57689 48.5745671 4432.57145 48.7117765L4394.39574 1012.01183C4394.17464 1017.59099 4389.58744 1022 4384.0039 1022L4299.99592 1022C4294.41238 1022 4289.82518 1017.59099 4289.60408 1012.01183L4251.42839 48.7117764C4251.20094 42.9725198 4255.66914 38.1355505 4261.4084 37.9081031 4261.54561 37.9026655 4261.68291 37.8999459 4261.82023 37.8999459zM5132.82023 37.8999459L5293.1796 37.8999459C5298.92337 37.8999459 5303.57961 42.5561847 5303.57961 48.2999464 5303.57961 48.4372635 5303.57689 48.5745671 5303.57145 48.7117765L5265.39574 1012.01183C5265.17464 1017.59099 5260.58744 1022 5255.0039 1022L5170.99592 1022C5165.41238 1022 5160.82518 1017.59099 5160.60408 1012.01183L5122.42839 48.7117764C5122.20094 42.9725198 5126.66914 38.1355505 5132.4084 37.9081031 5132.54561 37.9026655 5132.68291 37.8999459 5132.82023 37.8999459zM6003.82023 37.8999459L6164.1796 37.8999459C6169.92337 37.8999459 6174.57961 42.5561847 6174.57961 48.2999464 6174.57961 48.4372635 6174.57689 48.5745671 6174.57145 48.7117765L6136.39574 1012.01183C6136.17464 1017.59099 6131.58744 1022 6126.0039 1022L6041.99592 1022C6036.41238 1022 6031.82518 1017.59099 6031.60408 1012.01183L5993.42839 48.7117764C5993.20094 42.9725198 5997.66914 38.1355505 6003.4084 37.9081031 6003.54561 37.9026655 6003.68291 37.8999459 6003.82023 37.8999459zM1414.12894-5.96855898e-13L1484.87121-5.96855898e-13C1490.50799-5.97891357e-13 1495.11872 4.49052 1495.26759 10.1253276L1520.71805 973.425381C1520.86975 979.167139 1516.33811 983.944729 1510.59635 984.096426 1510.50481 984.098845 1510.41325 984.100054 1510.32168 984.100054L1388.67847 984.100054C1382.93471 984.100054 1378.27847 979.443815 1378.27847 973.700054 1378.27847 973.608484 1378.27968 973.516918 1378.2821 973.425381L1403.73256 10.1253276C1403.88144 4.49052 1408.49216-5.97596796e-13 1414.12894-5.96855898e-13zM2311.12887-4.26325641e-13L2381.87115-4.26325641e-13C2387.50793-4.273611e-13 2392.11865 4.49052 2392.26752 10.1253276L2417.71799 973.425381C2417.86968 979.167139 2413.33805 983.944729 2407.59629 984.096426 2407.50475 984.098845 2407.41318 984.100054 2407.32161 984.100054L2285.67841 984.100054C2279.93465 984.100054 2275.27841 979.443815 2275.27841 973.700054 2275.27841 973.608484 2275.27962 973.516918 2275.28204 973.425381L2300.7325 10.1253276C2300.88137 4.49052 2305.4921-4.2706654e-13 2311.12887-4.26325641e-13zM3650.12879 37.8999459L3720.87106 37.8999459C3726.50784 37.8999459 3731.11856 42.3904659 3731.26744 48.0252735L3756.7179 1011.32533C3756.8696 1017.06708 3752.33796 1021.84467 3746.5962 1021.99637 3746.50466 1021.99879 3746.4131 1022 3746.32153 1022L3624.67832 1022C3618.93456 1022 3614.27832 1017.34376 3614.27832 1011.6 3614.27832 1011.50843 3614.27953 1011.41686 3614.28195 1011.32533L3639.73241 48.0252735C3639.88129 42.3904659 3644.49201 37.8999459 3650.12879 37.8999459zM4521.12879 37.8999459L4591.87106 37.8999459C4597.50784 37.8999459 4602.11856 42.3904659 4602.26744 48.0252735L4627.7179 1011.32533C4627.8696 1017.06708 4623.33796 1021.84467 4617.5962 1021.99637 4617.50466 1021.99879 4617.4131 1022 4617.32153 1022L4495.67832 1022C4489.93456 1022 4485.27832 1017.34376 4485.27832 1011.6 4485.27832 1011.50843 4485.27953 1011.41686 4485.28195 1011.32533L4510.73241 48.0252735C4510.88129 42.3904659 4515.49201 37.8999459 4521.12879 37.8999459zM5392.12879 37.8999459L5462.87106 37.8999459C5468.50784 37.8999459 5473.11856 42.3904659 5473.26744 48.0252735L5498.7179 1011.32533C5498.8696 1017.06708 5494.33796 1021.84467 5488.5962 1021.99637 5488.50466 1021.99879 5488.4131 1022 5488.32153 1022L5366.67832 1022C5360.93456 1022 5356.27832 1017.34376 5356.27832 1011.6 5356.27832 1011.50843 5356.27953 1011.41686 5356.28195 1011.32533L5381.73241 48.0252735C5381.88129 42.3904659 5386.49201 37.8999459 5392.12879 37.8999459zM1622.26361-6.53699317e-13L1718.87123-6.53699317e-13C1724.508-6.44721854e-13 1729.11873 4.49052 1729.2676 10.1253276L1754.71806 973.425381C1754.86976 979.167139 1750.33812 983.944729 1744.59636 984.096426 1744.50482 984.098845 1744.41326 984.100054 1744.32169 984.100054L1609.53838 984.100054C1603.79462 984.100054 1599.13838 979.443815 1599.13838 973.700054 1599.13838 973.654261 1599.13868 973.608469 1599.13929 973.562681L1611.86452 10.2626281C1611.93968 4.57293859 1616.57343-6.86404827e-13 1622.26361-6.53699317e-13zM2961.26352 37.8999459L3057.87114 37.8999459C3063.50791 37.8999459 3068.11864 42.3904659 3068.26751 48.0252735L3093.71797 1011.32533C3093.86967 1017.06708 3089.33803 1021.84467 3083.59627 1021.99637 3083.50474 1021.99879 3083.41317 1022 3083.3216 1022L2948.53829 1022C2942.79453 1022 2938.13829 1017.34376 2938.13829 1011.6 2938.13829 1011.55421 2938.13859 1011.50842 2938.1392 1011.46263L2950.86443 48.162574C2950.93959 42.4728844 2955.57334 37.8999459 2961.26352 37.8999459zM3832.26352 37.8999459L3928.87114 37.8999459C3934.50791 37.8999459 3939.11864 42.3904659 3939.26751 48.0252735L3964.71797 1011.32533C3964.86967 1017.06708 3960.33803 1021.84467 3954.59627 1021.99637 3954.50474 1021.99879 3954.41317 1022 3954.3216 1022L3819.53829 1022C3813.79453 1022 3809.13829 1017.34376 3809.13829 1011.6 3809.13829 1011.55421 3809.13859 1011.50842 3809.1392 1011.46263L3821.86443 48.162574C3821.93959 42.4728844 3826.57334 37.8999459 3832.26352 37.8999459zM4703.26352 37.8999459L4799.87114 37.8999459C4805.50791 37.8999459 4810.11864 42.3904659 4810.26751 48.0252735L4835.71797 1011.32533C4835.86967 1017.06708 4831.33803 1021.84467 4825.59627 1021.99637 4825.50474 1021.99879 4825.41317 1022 4825.3216 1022L4690.53829 1022C4684.79453 1022 4680.13829 1017.34376 4680.13829 1011.6 4680.13829 1011.55421 4680.13859 1011.50842 4680.1392 1011.46263L4692.86443 48.162574C4692.93959 42.4728844 4697.57334 37.8999459 4703.26352 37.8999459zM5574.26352 37.8999459L5670.87114 37.8999459C5676.50791 37.8999459 5681.11864 42.3904659 5681.26751 48.0252735L5706.71797 1011.32533C5706.86967 1017.06708 5702.33803 1021.84467 5696.59627 1021.99637 5696.50474 1021.99879 5696.41317 1022 5696.3216 1022L5561.53829 1022C5555.79453 1022 5551.13829 1017.34376 5551.13829 1011.6 5551.13829 1011.55421 5551.13859 1011.50842 5551.1392 1011.46263L5563.86443 48.162574C5563.93959 42.4728844 5568.57334 37.8999459 5574.26352 37.8999459zM2519.26355-5.40012479e-13L2615.87116-5.40012479e-13C2621.50794-5.31035016e-13 2626.11866 4.49052 2626.26754 10.1253276L2651.718 973.425381C2651.8697 979.167139 2647.33806 983.944729 2641.5963 984.096426 2641.50476 984.098845 2641.4132 984.100054 2641.32163 984.100054L2506.53832 984.100054C2500.79456 984.100054 2496.13832 979.443815 2496.13832 973.700054 2496.13832 973.654261 2496.13862 973.608469 2496.13922 973.562681L2508.86446 10.2626281C2508.93962 4.57293859 2513.57336-5.72717989e-13 2519.26355-5.40012479e-13zM1831.10968-6.53699317e-13L1978.6001-6.53699317e-13C1984.34386-6.54754429e-13 1989.0001 4.65623886 1989.0001 10.4000006L1989.0001 973.700054C1989.0001 979.443815 1984.34386 984.100054 1978.6001 984.100054L1894.73584 984.100054C1889.25816 984.100054 1884.71947 979.851257 1884.35845 974.385482L1820.73229 11.0854291C1820.35374 5.35415551 1824.69298.401163447 1830.42426.0226117098 1830.65242.00754133571 1830.88102-6.35893744e-13 1831.10968-6.53699317e-13zM3170.1096 37.8999459L3317.60001 37.8999459C3323.34377 37.8999459 3328.00001 42.5561847 3328.00001 48.2999464L3328.00001 1011.6C3328.00001 1017.34376 3323.34377 1022 3317.60001 1022L3233.73575 1022C3228.25807 1022 3223.71938 1017.7512 3223.35836 1012.28543L3159.73221 48.985375C3159.35366 43.2541014 3163.69289 38.3011093 3169.42417 37.9225576 3169.65233 37.9074872 3169.88093 37.8999459 3170.1096 37.8999459zM4041.1096 37.8999459L4188.60001 37.8999459C4194.34377 37.8999459 4199.00001 42.5561847 4199.00001 48.2999464L4199.00001 1011.6C4199.00001 1017.34376 4194.34377 1022 4188.60001 1022L4104.73575 1022C4099.25807 1022 4094.71938 1017.7512 4094.35836 1012.28543L4030.73221 48.985375C4030.35366 43.2541014 4034.69289 38.3011093 4040.42417 37.9225576 4040.65233 37.9074872 4040.88093 37.8999459 4041.1096 37.8999459zM4912.1096 37.8999459L5059.60001 37.8999459C5065.34377 37.8999459 5070.00001 42.5561847 5070.00001 48.2999464L5070.00001 1011.6C5070.00001 1017.34376 5065.34377 1022 5059.60001 1022L4975.73575 1022C4970.25807 1022 4965.71938 1017.7512 4965.35836 1012.28543L4901.73221 48.985375C4901.35366 43.2541014 4905.69289 38.3011093 4911.42417 37.9225576 4911.65233 37.9074872 4911.88093 37.8999459 4912.1096 37.8999459zM5783.1096 37.8999459L5930.60001 37.8999459C5936.34377 37.8999459 5941.00001 42.5561847 5941.00001 48.2999464L5941.00001 1011.6C5941.00001 1017.34376 5936.34377 1022 5930.60001 1022L5846.73575 1022C5841.25807 1022 5836.71938 1017.7512 5836.35836 1012.28543L5772.73221 48.985375C5772.35366 43.2541014 5776.69289 38.3011093 5782.42417 37.9225576 5782.65233 37.9074872 5782.88093 37.8999459 5783.1096 37.8999459zM2728.10962-1.70530257e-13L2875.60004-1.70530257e-13C2881.3438-1.71585368e-13 2886.00004 4.65623886 2886.00004 10.4000006L2886.00004 973.700054C2886.00004 979.443815 2881.3438 984.100054 2875.60004 984.100054L2791.73578 984.100054C2786.25809 984.100054 2781.7194 979.851257 2781.35839 974.385482L2717.73223 11.0854291C2717.35368 5.35415551 2721.69292.401163447 2727.42419.0226117098 2727.65236.00754133571 2727.88096-1.52724684e-13 2728.10962-1.70530257e-13z"/>
    <rect width="1787.5" height="117" x="152.1" y="62.4" rx="10.4"/>
    <rect width="7505" height="117" x="152.1" y="296.4" rx="10.4"/>
    <rect width="7505" height="117" x="152.1" y="530.4" rx="10.4"/>
    <rect width="1787.5" height="117" x="152.1" y="764.4" rx="10.4"/>
    <path d="M6263.12879,37.8999459 L6333.87106,37.8999459 C6339.50784,37.8999459 6344.11856,42.3904659 6344.26744,48.0252735 L6369.7179,1011.32533 C6369.8696,1017.06708 6365.33796,1021.84467 6359.5962,1021.99637 C6359.50466,1021.99879 6359.4131,1022 6359.32153,1022 L6237.67832,1022 C6231.93456,1022 6227.27832,1017.34376 6227.27832,1011.6 C6227.27832,1011.50843 6227.27953,1011.41686 6227.28195,1011.32533 L6252.73241,48.0252735 C6252.88129,42.3904659 6257.49201,37.8999459 6263.12879,37.8999459 Z"/>
  </g>
</svg>
